# xmcd CD database file
#
# Track frame offsets:
#	150
#	67917
#	92199
#	131188
#	153231
#	174391
#	202658
#	224955
#	258220
#	282695
#	318513
#
# Disc length: 4621 seconds
#
# Revision: 0
# Processed by: cddbd v1.5.2PL0 Copyright (c) Steve Scherf et al.
# Submitted via: CDex 1.51
#
DISCID=a6120b0b
DTITLE=John Coltrane - Ballads - CD1
DYEAR=2015
DGENRE=Jazz
TTITLE0=John Coltrane - How deep is the ocean?
TTITLE1=John Coltrane - Soultrane
TTITLE2=John Coltrane - J.M.'s dream doll
TTITLE3=John Coltrane - Velvet scene
TTITLE4=John Coltrane - While my lady sleeps
TTITLE5=John Coltrane - Violets for your furs
TTITLE6=John Coltrane - Like someone in love
TTITLE7=John Coltrane - You leave me breathless
TTITLE8=John Coltrane - Slow dance
TTITLE9=John Coltrane - I'm old fashioned
TTITLE10=John Coltrane - I got it bad
EXTD=YEAR: 2015
EXTT0=
EXTT1=
EXTT2=
EXTT3=
EXTT4=
EXTT5=
EXTT6=
EXTT7=
EXTT8=
EXTT9=
EXTT10=
PLAYORDER=
